<svg xmlns="http://www.w3.org/2000/svg" version="1.1" xmlns:xlink="http://www.w3.org/1999/xlink" xmlns:svgjs="http://svgjs.dev/svgjs" viewBox="0 0 4.029278879823726 5.863682228616349"><g transform="matrix(1,0,0,1,0.4036317494821753,1.471217666634173)"><rect width="5.863682228616349" height="5.863682228616349" x="-1.320833423878487" y="-1.471217666634173" fill="#fffef5"></rect><g><path d=" M 1.1295000000000002 2.9924999999999997 Q 0.9405000000000001 2.9924999999999997 0.7605000000000001 2.961 Q 0.5805 2.9295 0.43200000000000005 2.85525 Q 0.28350000000000003 2.7809999999999997 0.19575000000000004 2.64825 Q 0.10800000000000001 2.5155 0.10800000000000001 2.3084999999999996 Q 0.10800000000000001 2.0835 0.21600000000000003 1.9282499999999998 Q 0.32400000000000007 1.7729999999999997 0.49950000000000006 1.6762499999999996 Q 0.675 1.5794999999999997 0.8797500000000001 1.5254999999999996 Q 1.0845 1.4714999999999996 1.28025 1.4467499999999998 Q 1.4760000000000002 1.4219999999999997 1.6245000000000003 1.4174999999999995 Q 1.4895000000000003 1.2599999999999996 1.3815000000000002 1.0214999999999996 Q 1.2735 0.7829999999999995 1.2735 0.5579999999999994 Q 1.2735 0.4769999999999994 1.2915 0.40049999999999963 Q 1.3095 0.3239999999999994 1.35 0.2564999999999995 Q 1.3950000000000002 0.17549999999999955 1.4940000000000002 0.11924999999999963 Q 1.5930000000000002 0.06299999999999928 1.7100000000000002 0.03149999999999942 Q 1.8270000000000002 -4.440892098500626e-16 1.9260000000000002 -4.440892098500626e-16 Q 2.0925000000000002 -4.440892098500626e-16 2.2005000000000003 0.08774999999999933 Q 2.3085000000000004 0.17549999999999955 2.4030000000000005 0.2654999999999994 Q 2.4255000000000004 0.28799999999999937 2.4592500000000004 0.3172499999999996 Q 2.4930000000000003 0.34649999999999936 2.5335 0.35999999999999943 Q 2.5515000000000003 0.3644999999999996 2.5762500000000004 0.3667499999999997 Q 2.6010000000000004 0.36899999999999933 2.619 0.3824999999999994 Q 2.6550000000000002 0.4139999999999997 2.6842500000000005 0.4769999999999994 Q 2.7135000000000002 0.5399999999999996 2.7315000000000005 0.5894999999999997 Q 2.7585 0.6614999999999998 2.7585 0.7784999999999995 Q 2.7585 0.8684999999999996 2.7382500000000003 0.9449999999999996 Q 2.7180000000000004 1.0214999999999996 2.6775 1.0214999999999996 Q 2.6550000000000002 1.0214999999999996 2.619 0.9809999999999997 Q 2.5650000000000004 0.9179999999999995 2.5425000000000004 0.8122499999999995 Q 2.5200000000000005 0.7064999999999997 2.475 0.6209999999999996 Q 2.4210000000000003 0.5039999999999996 2.358 0.40499999999999936 Q 2.2950000000000004 0.3059999999999996 2.205 0.23399999999999954 Q 2.169 0.19349999999999934 2.09925 0.15299999999999958 Q 2.0295 0.11249999999999938 1.9395000000000002 0.11249999999999938 Q 1.8720000000000003 0.11249999999999938 1.8270000000000002 0.13499999999999934 Q 1.6695000000000002 0.1979999999999995 1.6042500000000002 0.34199999999999964 Q 1.5390000000000001 0.4859999999999993 1.5390000000000001 0.6569999999999996 Q 1.5390000000000001 0.8639999999999997 1.6065000000000003 1.0687499999999996 Q 1.6740000000000002 1.2734999999999996 1.7595000000000003 1.3814999999999997 Q 1.7820000000000003 1.4084999999999996 1.8697500000000002 1.4152499999999997 Q 1.9575000000000002 1.4219999999999997 1.9935000000000003 1.4309999999999996 Q 2.0655 1.4354999999999996 2.0970000000000004 1.4624999999999997 Q 2.1285000000000003 1.4894999999999996 2.1285000000000003 1.5209999999999997 Q 2.1285000000000003 1.5704999999999996 2.0700000000000003 1.6064999999999996 Q 2.0475000000000003 1.6289999999999998 1.9935000000000003 1.6289999999999998 Q 1.9170000000000003 1.6289999999999998 1.8225000000000002 1.5997499999999996 Q 1.7280000000000002 1.5704999999999996 1.6650000000000003 1.5569999999999997 Q 1.5300000000000002 1.5614999999999997 1.3545000000000003 1.6019999999999996 Q 1.179 1.6424999999999996 0.9967500000000001 1.7167499999999998 Q 0.8145000000000001 1.7909999999999997 0.6592500000000001 1.8989999999999996 Q 0.504 2.0069999999999997 0.40725000000000006 2.1442499999999995 Q 0.31050000000000005 2.2815 0.30600000000000005 2.4435 Q 0.30150000000000005 2.6235 0.44550000000000006 2.754 Q 0.5895 2.8844999999999996 0.9720000000000001 2.8844999999999996 Q 1.1520000000000001 2.8844999999999996 1.3590000000000002 2.8529999999999998 Q 1.5660000000000003 2.8215 1.76625 2.7697499999999997 Q 1.9665000000000001 2.718 2.1375 2.6595 Q 2.3085000000000004 2.601 2.4165 2.5425 Q 2.5020000000000002 2.502 2.6235000000000004 2.4187499999999997 Q 2.745 2.3354999999999997 2.86425 2.2274999999999996 Q 2.9835000000000003 2.1194999999999995 3.06225 2.0047499999999996 Q 3.1410000000000005 1.8899999999999997 3.1410000000000005 1.7819999999999996 Q 3.1410000000000005 1.7729999999999997 3.1410000000000005 1.7594999999999996 Q 3.1410000000000005 1.7459999999999996 3.1365000000000003 1.7369999999999997 Q 3.1320000000000006 1.7189999999999996 3.1545000000000005 1.7189999999999996 Q 3.1770000000000005 1.7189999999999996 3.1860000000000004 1.7279999999999998 Q 3.2490000000000006 1.8179999999999996 3.2490000000000006 1.9259999999999997 Q 3.2490000000000006 2.07 3.1477500000000003 2.2095 Q 3.0465000000000004 2.3489999999999998 2.9070000000000005 2.4615 Q 2.7675000000000005 2.574 2.6505000000000005 2.6369999999999996 Q 2.511 2.718 2.3152500000000003 2.78325 Q 2.1195000000000004 2.8484999999999996 1.9057500000000003 2.8957499999999996 Q 1.6920000000000002 2.9429999999999996 1.4895000000000003 2.9677499999999997 Q 1.2870000000000001 2.9924999999999997 1.1295000000000002 2.9924999999999997" fill="#390c14" fill-rule="nonzero"></path></g><g><path d=" M 0.0030468750000000005 3.9883640625 L 0.0030468750000000005 3.9876140625 L 0.006796875000000001 3.9857390625 L 0.006796875000000001 3.9600515625 L 0.0030468750000000005 3.9581765625000003 L 0.0030468750000000005 3.9574265625000002 L 0.015234375000000003 3.9574265625000002 L 0.015234375000000003 3.9581765625000003 L 0.011015625000000001 3.9600515625 L 0.011015625000000001 3.9857859375 L 0.022406250000000003 3.9857859375 L 0.025593750000000005 3.9779578125 L 0.026343750000000006 3.9779578125 L 0.026343750000000006 3.9883640625 L 0.0030468750000000005 3.9883640625 M 0.03731339263916016 3.9611296875 Q 0.03609464263916016 3.9611296875 0.03529776763916016 3.960309375 Q 0.03450089263916016 3.9594890625 0.03450089263916016 3.9583171875 Q 0.03450089263916016 3.9570984375 0.03529776763916016 3.9563015625 Q 0.03609464263916016 3.9555046875 0.03731339263916016 3.9555046875 Q 0.03853214263916016 3.9555046875 0.03932901763916016 3.9563015625 Q 0.040125892639160166 3.9570984375 0.040125892639160166 3.9583171875 Q 0.040125892639160166 3.9594890625 0.03932901763916016 3.960309375 Q 0.03853214263916016 3.9611296875 0.03731339263916016 3.9611296875 M 0.03262589263916016 3.9883640625 L 0.03262589263916016 3.9876140625 L 0.03557901763916016 3.9861140625 L 0.03557901763916016 3.9721453125 L 0.032766517639160164 3.9697078125000003 L 0.032766517639160164 3.9693796875 L 0.03904776763916016 3.9668015625 L 0.03932901763916016 3.9668015625 L 0.03932901763916016 3.9861140625 L 0.042282142639160164 3.9876140625 L 0.042282142639160164 3.9883640625 L 0.03262589263916016 3.9883640625 M 0.05006284332275392 3.9888328125 L 0.05006284332275392 3.9585515625000003 L 0.047250343322753914 3.9561140625 L 0.047250343322753914 3.9557859375 L 0.053531593322753916 3.9532078125 L 0.05381284332275391 3.9532078125 L 0.05381284332275391 3.9697078125000003 L 0.05400034332275391 3.9697078125000003 Q 0.05578159332275392 3.9682078125 0.05744565582275392 3.9675046875 Q 0.05910971832275391 3.9668015625 0.061031593322753916 3.9668015625 Q 0.06342221832275391 3.9668015625 0.06525034332275392 3.9680203125 Q 0.06707846832275391 3.9692390625000002 0.06813315582275392 3.971465625 Q 0.06918784332275392 3.9736921875 0.06918784332275392 3.9767859375 Q 0.06918784332275392 3.9806296875 0.06773471832275392 3.9833250000000002 Q 0.06628159332275392 3.9860203125 0.06379721832275392 3.9874265625 Q 0.06131284332275391 3.9888328125 0.05821909332275392 3.9888328125 Q 0.05629721832275392 3.9888328125 0.054633155822753916 3.98848125 Q 0.052969093322753916 3.9881296875000003 0.051515968322753916 3.9876140625 L 0.05034409332275391 3.9888328125 L 0.05006284332275392 3.9888328125 M 0.058453468322753915 3.9700359375 Q 0.057328468322753914 3.9700359375 0.05613315582275392 3.9703875 Q 0.054937843322753914 3.9707390625 0.05381284332275391 3.9714421875 L 0.05381284332275391 3.9846609375 Q 0.055125343322753914 3.9856921875 0.056461280822753916 3.9861375 Q 0.05779721832275392 3.9865828125 0.05943784332275392 3.9865828125 Q 0.06107846832275392 3.9865828125 0.062437843322753914 3.985715625 Q 0.06379721832275392 3.9848484375 0.06461753082275391 3.9829265625 Q 0.06543784332275392 3.9810046875 0.06543784332275392 3.9778640625 Q 0.06543784332275392 3.9737859375 0.06339878082275391 3.9719109375 Q 0.061359718322753914 3.9700359375 0.058453468322753915 3.9700359375" fill="#a5497e" fill-rule="nonzero"></path></g><g clip-path="url(#SvgjsClipPath1007)"><g clip-path="url(#SvgjsClipPath1004b56571c4-b599-422f-a89d-e4b8b058bd21)"><path d=" M 0.11500460814629873 -0.9714006502986886 L 0.02304105766519266 -0.9714006502986886 L 0.02304105766519266 -0.3558030502787154 L 0.11500460814629873 -0.3558030502787154 Z M 0 -0.990636217149501 L 0 -0.336567483427903 L 0.1380085028152572 -0.336567483427903 L 0.1380085028152572 -0.9906362171495011 Z" fill="#000000" transform="matrix(1,0,0,1,0,0)" fill-rule="evenodd"></path></g><g clip-path="url(#SvgjsClipPath1004b56571c4-b599-422f-a89d-e4b8b058bd21)"><path d=" M 0.23000921629259746 -0.8848331668707857 L 0.13800107021601038 -0.8848331668707857 L 0.13800107021601038 -0.2692355668508124 L 0.23000921629259746 -0.2692355668508124 Z M 0.11500460814629873 -0.9040687337215981 L 0.11500460814629873 -0.25 L 0.25301311096155593 -0.25 L 0.25301311096155593 -0.9040687337215981 Z" fill="#000000" transform="matrix(1,0,0,1,0,0)" fill-rule="evenodd"></path></g><g clip-path="url(#SvgjsClipPath1004b56571c4-b599-422f-a89d-e4b8b058bd21)"><path d=" M 0.5750230407314936 -0.8848331668707857 L 0.48302232725415334 -0.8848331668707857 L 0.48302232725415334 -0.2692355668508124 L 0.5750230407314936 -0.2692355668508124 Z M 0.4600184325851949 -0.9040687337215981 L 0.4600184325851949 -0.25 L 0.598026935400452 -0.25 L 0.598026935400452 -0.9040687337215981 Z" fill="#000000" transform="matrix(1,0,0,1,0,0)" fill-rule="evenodd"></path></g><g clip-path="url(#SvgjsClipPath1004b56571c4-b599-422f-a89d-e4b8b058bd21)"><path d=" M 0.34502125703814307 -0.9714006502986886 L 0.25301311096155593 -0.9714006502986886 L 0.25301311096155593 -0.3558030502787154 L 0.34502125703814307 -0.3558030502787154 Z M 0.23001664889184428 -0.990636217149501 L 0.23001664889184428 -0.336567483427903 L 0.3680177191078547 -0.336567483427903 L 0.3680177191078547 -0.9906362171495011 Z" fill="#000000" transform="matrix(1,0,0,1,0,0)" fill-rule="evenodd"></path></g><g clip-path="url(#SvgjsClipPath1004b56571c4-b599-422f-a89d-e4b8b058bd21)"><path d=" M 0.4600258651844418 -1.0483503503011853 L 0.3680177191078547 -1.0483503503011853 L 0.3680177191078547 -0.43275275028121196 L 0.4600258651844418 -0.43275275028121196 Z M 0.34501382443889617 -1.0675859171519977 L 0.34501382443889617 -0.41351718343039956 L 0.48302232725415334 -0.41351718343039956 L 0.48302232725415334 -1.0675859171519977 Z" fill="#000000" transform="matrix(1,0,0,1,0,0)" fill-rule="evenodd"></path></g></g></g><defs><clipPath id="SvgjsClipPath1007"><path d=" M 0 -1.0675859171519977 h 0.598026935400452 v 0.8175859171519977 h -0.598026935400452 Z"></path></clipPath><clipPath id="SvgjsClipPath1004b56571c4-b599-422f-a89d-e4b8b058bd21"><path d=" M 0 -1.0675859171519977 L 0.598026935400452 -1.0675859171519977 L 0.598026935400452 -0.25 L 0 -0.25 Z"></path></clipPath></defs></svg>